<?xml version="1.0" encoding="utf-8"?>
<!-- Generator: Adobe Illustrator 24.0.2, SVG Export Plug-In . SVG Version: 6.00 Build 0)  -->
<svg version="1.1" id="Layer_1" xmlns="http://www.w3.org/2000/svg" xmlns:xlink="http://www.w3.org/1999/xlink" x="0px" y="0px"
	 viewBox="0 0 1000 1000" style="enable-background:new 0 0 1000 1000;" xml:space="preserve">
<style type="text/css">
	.st0{fill:#FF0086;}
	.st1{fill:#5000FF;}
	.st2{fill:#1FB6EA;}
	.st3{fill:#6300FF;}
	.st4{fill:#FF008C;}
	.st5{fill:#00C9FF;}
	.st6{fill:#6200FC;}
	.st7{fill:#FFCE00;}
	.st8{fill:#F97E03;}
	.st9{fill:#FC7F03;}
	.st10{fill:#FF3600;}
	.st11{fill:#FFFFFF;}
</style>
<g>
	<g>
		<polygon class="st0" points="273.63,502.39 273.63,390.2 260.77,390.2 260.77,513.35 277.02,513.35 283.59,502.39 		"/>
		<polygon class="st1" points="277.02,513.35 328.98,513.35 328.98,502.39 283.59,502.39 		"/>
		<path class="st2" d="M401.06,388.47v11.04c3.96,0.12,7.72,0.63,11.3,1.48l7.01-9.56C413.59,389.63,407.49,388.64,401.06,388.47z"
			/>
		<path class="st3" d="M354.23,496.92c5.74,5.68,12.48,10.12,20.22,13.3c6.31,2.58,13.02,4.12,20.1,4.61v-10.96
			c-5.66-0.49-10.93-1.84-15.82-4.04c-6.21-2.8-11.53-6.56-15.98-11.29c-2.8-2.97-5.22-6.25-7.25-9.84l-10.42,6.7
			C347.69,489.61,350.73,493.45,354.23,496.92z"/>
		<path class="st4" d="M354.4,407.04c-5.74,5.74-10.3,12.47-13.67,20.18c-3.38,7.72-5.07,15.97-5.07,24.75
			c0,8.95,1.66,17.26,4.98,24.92c1.3,2.99,2.78,5.83,4.45,8.52l10.42-6.7c-1.2-2.12-2.27-4.34-3.21-6.67
			c-2.53-6.29-3.79-12.97-3.79-20.06c0-6.97,1.26-13.65,3.79-20.02c2.53-6.37,6.01-11.94,10.46-16.72
			c4.45-4.78,9.8-8.59,16.06-11.45c4.83-2.25,10.08-3.62,15.73-4.12v-11.04c-6.97,0.49-13.62,2.09-19.94,4.78
			C366.88,396.76,360.14,401.3,354.4,407.04z"/>
		<path class="st5" d="M444.6,406.63c-5.68-5.68-12.4-10.15-20.14-13.39c-1.67-0.68-3.37-1.28-5.09-1.82l-7.01,9.56
			c2.72,0.65,5.33,1.49,7.82,2.56c6.21,2.69,11.5,6.4,15.9,11.12c4.39,4.72,7.8,10.28,10.21,16.68c2.42,6.4,3.62,13.33,3.62,20.8
			c0,7.2-1.21,13.94-3.62,20.22c-1.15,2.99-2.54,5.8-4.14,8.43l8.33,9.24c2.92-3.97,5.38-8.32,7.39-13.06
			c3.27-7.72,4.9-16.13,4.9-25.25c0-8.95-1.61-17.29-4.82-25C454.73,419.02,450.28,412.31,444.6,406.63z"/>
		<path class="st6" d="M435.99,488.88c-4.45,4.72-9.78,8.43-15.98,11.12c-5.71,2.47-12.03,3.82-18.95,4.04V515
			c8.29-0.22,16.06-1.78,23.31-4.7c7.69-3.13,14.37-7.54,20.06-13.22c2.19-2.19,4.2-4.54,6.04-7.04l-8.33-9.24
			C440.37,483.71,438.33,486.41,435.99,488.88z"/>
		<path class="st5" d="M514.7,499.84c-6.18-2.8-11.52-6.56-16.02-11.29c-4.5-4.72-7.99-10.23-10.46-16.52
			c-2.47-6.29-3.71-12.97-3.71-20.06c0-7.08,1.26-13.81,3.79-20.18c2.53-6.37,6.04-11.94,10.54-16.72
			c4.5-4.78,9.87-8.57,16.11-11.37c6.23-2.8,13-4.2,20.31-4.2c9.99,0,18.45,2.05,25.37,6.14c6.92,4.09,12.8,9.68,17.63,16.76
			l9.64-6.76c-5.93-8.62-13.4-15.31-22.41-20.06c-9.01-4.75-19.14-7.13-30.4-7.13c-8.79,0-17.03,1.66-24.71,4.98
			c-7.69,3.32-14.43,7.85-20.22,13.59c-5.79,5.74-10.35,12.47-13.67,20.18c-3.32,7.72-4.98,15.97-4.98,24.75
			c0,8.95,1.66,17.26,4.98,24.92c3.32,7.66,7.88,14.33,13.67,20.02c5.79,5.68,12.6,10.12,20.43,13.3c1.77,0.72,3.57,1.36,5.39,1.91
			l9.54-8.95C521.72,502.49,518.12,501.39,514.7,499.84z"/>
		<path class="st7" d="M543,463.1h32.46v26.11c-2.86,4.06-7.73,7.55-14.62,10.46c-6.89,2.91-15.47,4.37-25.74,4.37
			c-3.32,0-6.51-0.3-9.58-0.86l-9.54,8.95c6.23,1.91,12.77,2.86,19.61,2.86c6.76,0,12.97-0.65,18.66-1.94
			c5.68-1.29,10.75-2.97,15.2-5.02c4.45-2.06,8.28-4.45,11.49-7.17c3.21-2.72,5.64-5.48,7.29-8.28v-40.45H543V463.1z"/>
		<polygon class="st8" points="605.94,513.35 618.79,513.35 618.79,460.76 605.94,477.49 		"/>
		<polygon class="st7" points="605.94,477.49 618.79,460.76 618.79,390.2 605.94,390.2 		"/>
		<polygon class="st9" points="635.59,386.16 635.59,513.35 648.45,513.35 648.45,418.7 690.34,464.4 699.75,456.02 		"/>
		<polygon class="st10" points="726.38,390.2 726.38,432.34 726.38,485.01 699.75,456.02 690.34,464.4 739.23,517.72 739.23,420.9 
			739.23,390.2 		"/>
	</g>
	<g>
		<g>
			<path class="st5" d="M286.16,587.57h-16.79v24.89h-8.59v-69.13h31.41c7.37,0,13.12,2.17,17.23,6.52
				c4.12,4.35,6.17,9.55,6.17,15.6c0.07,5.66-1.55,10.52-4.84,14.57c-3.29,4.05-8.3,6.34-15.01,6.86l22.81,25.58h-10.86
				L286.16,587.57z M303.09,575.87c2.6-2.67,3.9-6.07,3.9-10.22c0.07-3.82-1.22-7.21-3.85-10.17c-2.63-2.96-6.29-4.44-10.96-4.44
				h-22.81v28.84h22.42C296.72,579.87,300.49,578.53,303.09,575.87z"/>
			<path class="st5" d="M331.08,543.33h48.59v7.9h-40.1v21.63h38.42v8h-38.42v23.41h41.68v8.2h-50.17V543.33z"/>
			<path class="st5" d="M426.48,613.54c-11.52,0-20.39-3.41-26.62-10.22c-6.22-6.81-9.37-15.16-9.43-25.04
				c-0.07-6.32,1.19-12.15,3.75-17.48c2.57-5.33,6.65-9.76,12.25-13.28c5.6-3.52,12.28-5.28,20.05-5.28
				c9.81,0,18.24,3.46,25.28,10.37l-5.93,5.53c-5.2-5.14-11.65-7.7-19.36-7.7c-8.82,0-15.62,2.7-20.39,8.1
				c-4.77,5.4-7.13,11.95-7.06,19.65c0.13,7.64,2.53,14.07,7.21,19.31c4.67,5.23,11.42,7.85,20.25,7.85c7.77,0,14.32-2.67,19.65-8
				l6.02,5.93C445.24,610.12,436.68,613.54,426.48,613.54z"/>
			<path class="st5" d="M519.75,552.81c6.16,7.05,9.2,15.47,9.13,25.28c0,4.61-0.74,9.02-2.22,13.23s-3.62,8.02-6.42,11.41
				c-2.8,3.39-6.47,6.09-11.01,8.1c-4.54,2.01-9.68,3.01-15.41,3.01c-5.73,0-10.88-1-15.46-3.01c-4.58-2.01-8.26-4.71-11.06-8.1
				c-2.8-3.39-4.94-7.18-6.42-11.36c-1.48-4.18-2.22-8.61-2.22-13.28c0-10.27,3.21-18.83,9.63-25.68
				c6.42-6.85,14.96-10.27,25.63-10.27C504.99,542.21,513.6,545.76,519.75,552.81z M517.63,564.61c-1.84-4.12-4.82-7.56-8.94-10.32
				c-4.11-2.76-9.04-4.18-14.76-4.25c-8.43,0-14.98,2.68-19.65,8.05c-4.67,5.37-7.01,12.03-7.01,20c0,7.64,2.3,14.16,6.91,19.56
				c4.61,5.4,11.19,8.1,19.75,8.1c8.49,0,15.01-2.73,19.56-8.2c4.54-5.46,6.81-11.95,6.81-19.46
				C520.36,573.22,519.47,568.72,517.63,564.61z"/>
			<path class="st5" d="M568.28,587.57h-16.79v24.89h-8.59v-69.13h31.41c7.37,0,13.12,2.17,17.23,6.52
				c4.12,4.35,6.17,9.55,6.17,15.6c0.07,5.66-1.55,10.52-4.84,14.57s-8.3,6.34-15.01,6.86l22.81,25.58h-10.86L568.28,587.57z
				 M585.22,575.87c2.6-2.67,3.9-6.07,3.9-10.22c0.07-3.82-1.22-7.21-3.85-10.17c-2.63-2.96-6.29-4.44-10.96-4.44h-22.81v28.84
				h22.42C578.85,579.87,582.62,578.53,585.22,575.87z"/>
			<path class="st5" d="M613.21,543.23h25.18c5.66,0,10.76,0.96,15.31,2.86c4.54,1.91,8.2,4.48,10.96,7.7
				c2.76,3.23,4.87,6.83,6.32,10.81c1.45,3.98,2.17,8.15,2.17,12.49c0,4.54-0.69,8.87-2.07,12.99c-1.38,4.11-3.44,7.87-6.17,11.26
				c-2.73,3.39-6.39,6.09-10.96,8.1c-4.58,2.01-9.76,3.01-15.55,3.01h-25.18v-69.13V543.23z M657.9,595.92
				c4.44-5.3,6.67-11.6,6.67-18.91c0-6.98-2.27-12.97-6.81-17.97c-4.54-5-11-7.51-19.36-7.51h-16.59v52.34h16.59
				C646.96,603.87,653.46,601.22,657.9,595.92z"/>
			<path class="st5" d="M722.63,551.87c-3.55-1.48-7.37-2.26-11.46-2.32c-4.94,0-9.2,1-12.79,3.01c-3.59,2.01-5.38,4.95-5.38,8.84
				c0,1.78,0.46,3.33,1.38,4.64c0.92,1.32,2.34,2.4,4.25,3.26c1.91,0.86,3.83,1.53,5.78,2.03c1.94,0.49,4.39,0.97,7.36,1.43
				c3.42,0.53,6.19,1.02,8.3,1.48s4.53,1.2,7.26,2.22c2.73,1.02,4.86,2.19,6.37,3.51c1.51,1.32,2.82,3.11,3.9,5.38
				s1.63,4.92,1.63,7.95c0,3.69-0.84,6.91-2.52,9.68c-1.68,2.77-3.92,4.91-6.72,6.42c-2.8,1.51-5.78,2.63-8.94,3.36
				c-3.16,0.72-6.48,1.09-9.97,1.09c-6.58,0-12.48-1.3-17.68-3.9c-5.2-2.6-9.05-6.63-11.55-12.1l7.11-4.15
				c2.11,3.89,5.22,6.88,9.33,8.99c4.11,2.11,8.41,3.16,12.89,3.16c2.3,0,4.53-0.2,6.67-0.59c2.14-0.4,4.21-1.05,6.22-1.97
				c2.01-0.92,3.62-2.26,4.84-4c1.22-1.74,1.83-3.83,1.83-6.27c0-2.04-0.51-3.82-1.53-5.33c-1.02-1.51-2.55-2.73-4.59-3.65
				c-2.04-0.92-4.1-1.65-6.17-2.17c-2.07-0.53-4.62-1.02-7.65-1.48c-3.16-0.46-5.81-0.94-7.95-1.43c-2.14-0.49-4.46-1.22-6.96-2.17
				c-2.5-0.96-4.51-2.07-6.02-3.36c-1.51-1.28-2.78-2.96-3.8-5.04c-1.02-2.07-1.53-4.46-1.53-7.16c-0.07-3.42,0.71-6.44,2.32-9.04
				c1.61-2.6,3.75-4.62,6.42-6.07c2.67-1.45,5.5-2.52,8.49-3.21c3-0.69,6.07-1.04,9.24-1.04c5.93,0,11.06,0.89,15.41,2.67
				c4.35,1.78,7.93,5.07,10.76,9.88l-6.52,4.05C728.85,555.54,726.19,553.35,722.63,551.87z"/>
		</g>
	</g>
</g>
</svg>
